<svg width="650" height="788" viewBox="0 0 650 788" fill="none" xmlns="http://www.w3.org/2000/svg">
<g filter="url(#filter0_d_108_1329)">
<path opacity="0.24" d="M187.078 688.613C140.629 693.283 92.7545 698.419 51.8811 721.264C46.4104 724.328 40.8558 727.942 37.8375 733.458C31.7798 744.553 38.6549 759.177 49.3239 765.855C59.9929 772.533 73.1563 773.294 85.7117 773.844C309.279 783.586 533.181 779.761 756.937 775.957C821.915 774.858 887.92 773.59 950.195 754.718C961.388 751.337 973.692 746.265 977.905 735.212C983.417 720.757 970.841 704.737 956.169 700.236C941.496 695.735 925.838 699.095 910.663 701.06C857.968 707.886 804.811 697.446 752.346 689.099C649.639 672.784 543.075 659.512 439.047 657.039C403.581 656.215 373.293 668.515 338.582 673.376C288.465 680.434 237.467 683.541 187.078 688.613Z" fill="#505F98"/>
<path d="M4.36881 255.326L120.198 19.4083L189.185 53.1897L73.3551 289.108L4.36881 255.326Z" fill="white"/>
<path d="M31.2139 248.055L45.3273 219.22L91.7915 241.903L77.678 270.738L31.2139 248.055Z" fill="#505F98"/>
<path d="M31.2139 248.055L45.3273 219.22L91.7915 241.903L77.678 270.738L31.2139 248.055Z" fill="url(#paint0_linear_108_1329)"/>
<path d="M45.3295 219.445L59.4429 190.61L105.907 213.293L91.7936 242.128L45.3295 219.445Z" fill="#505F98"/>
<path d="M45.3295 219.445L59.4429 190.61L105.907 213.293L91.7936 242.128L45.3295 219.445Z" fill="url(#paint1_linear_108_1329)"/>
<path d="M59.4261 190.826L73.5396 161.991L120.004 184.674L105.89 213.509L59.4261 190.826Z" fill="#505F98"/>
<path d="M59.4261 190.826L73.5396 161.991L120.004 184.674L105.89 213.509L59.4261 190.826Z" fill="url(#paint2_linear_108_1329)"/>
<path d="M73.5625 162.237L87.676 133.402L134.14 156.085L120.027 184.92L73.5625 162.237Z" fill="#505F98"/>
<path d="M73.5625 162.237L87.676 133.402L134.14 156.085L120.027 184.92L73.5625 162.237Z" fill="url(#paint3_linear_108_1329)"/>
<path d="M87.6685 133.599L101.782 104.764L148.246 127.447L134.133 156.282L87.6685 133.599Z" fill="#505F98"/>
<path d="M101.784 105.01L115.897 76.1754L162.362 98.8578L148.248 127.693L101.784 105.01Z" fill="#505F98"/>
<path d="M115.881 76.3912L129.994 47.5563L176.458 70.2387L162.345 99.0736L115.881 76.3912Z" fill="#505F98"/>
<path d="M100.196 108.598L114.309 79.7633L160.774 102.446L146.66 131.281L100.196 108.598Z" fill="url(#paint4_linear_108_1329)"/>
<path d="M114.321 79.9695L128.434 51.1346L174.898 73.817L160.785 102.652L114.321 79.9695Z" fill="url(#paint5_linear_108_1329)"/>
<rect x="414.837" y="573" width="98.0679" height="82" fill="#505F98"/>
<rect x="414.837" y="573" width="98.0679" height="82" fill="url(#paint6_linear_108_1329)"/>
<rect x="206.693" y="231" width="518.359" height="355" rx="9.37" fill="#505F98"/>
<path opacity="0.65" d="M708.04 260.438V554.562C708.057 559.443 706.133 564.129 702.693 567.588C699.253 571.047 694.579 572.994 689.703 573H238.039C233.165 572.989 228.494 571.04 225.056 567.582C221.617 564.125 219.691 559.441 219.702 554.562V260.438C219.691 255.559 221.617 250.875 225.056 247.418C228.494 243.96 233.165 242.011 238.039 242H689.703C694.579 242.006 699.253 243.953 702.693 247.412C706.133 250.871 708.057 255.557 708.04 260.438Z" fill="url(#paint7_linear_108_1329)"/>
<rect x="369.806" y="645" width="206.143" height="21" fill="#505F98"/>
<rect x="414.837" y="633" width="98.0679" height="12" fill="url(#paint8_linear_108_1329)"/>
<path fill-rule="evenodd" clip-rule="evenodd" d="M569.945 59.2411V79.7145L557.235 79.8193C555.999 89.3456 552.375 98.4104 546.697 106.181L557.552 117.351L542.672 131.6L531.986 120.578C525.397 125.062 517.962 128.17 510.13 129.714V143H489.559V130.029C480.774 128.76 472.402 125.497 465.089 120.494L456.153 129.316L441.589 114.647L450.462 105.993C444.876 98.2193 441.313 89.191 440.092 79.7145H425.845V59.2411H440.598C442.427 51.0933 446.024 43.4409 451.136 36.8187L442.896 28.3318L457.776 14.0821L466.206 22.8205C473.176 18.2143 481.1 15.2276 489.39 14.0821V0H509.961V14.3964C518.33 16.0545 526.239 19.493 533.145 24.476L543.683 14.1659L558.163 28.709L547.625 39.1867C551.756 45.2671 554.689 52.0725 556.266 59.2411H569.945ZM463.803 72.1496C463.78 91.211 479.303 106.682 498.474 106.705C507.686 106.733 516.529 103.113 523.051 96.6445C529.572 90.1762 533.235 81.3922 533.229 72.2334C533.253 53.1721 517.73 37.7011 498.559 37.678C479.387 37.6548 463.827 53.0883 463.803 72.1496Z" fill="#505F98"/>
<path fill-rule="evenodd" clip-rule="evenodd" d="M645.997 93.3542L645.079 105.396L637.566 104.938C636.44 110.475 633.935 115.641 630.283 119.958L636.147 127.021L626.798 134.729L621.039 127.792C616.984 130.13 612.498 131.625 607.85 132.188L607.245 140L595.204 139.104L595.788 131.479C590.703 130.344 585.947 128.056 581.89 124.792L576.256 129.583L568.388 120.396L573.96 115.688C571.032 110.876 569.346 105.414 569.056 99.7917L560.938 99.1667L561.836 87.1458L570.454 87.7917C571.878 83.0854 574.305 78.7428 577.57 75.0625L573.125 69.7083L582.474 62L587.003 67.5C591.274 65.095 596.029 63.6715 600.922 63.3333L601.548 55L613.589 55.8958L612.942 64.375C617.749 65.7138 622.207 68.0811 626.005 71.3125L632.621 65.7083L640.467 74.8958L633.789 80.5833C635.956 84.3387 637.373 88.4774 637.963 92.7708L645.997 93.3542ZM583.3 96.2429C582.445 107.436 590.837 117.203 602.049 118.062C607.443 118.487 612.784 116.747 616.889 113.228C620.994 109.708 623.524 104.7 623.919 99.3125C624.761 88.1186 616.358 78.3609 605.146 77.5136C593.934 76.6662 584.155 85.05 583.3 96.2429Z" fill="#505F98"/>
<path d="M708.04 260.513V267H219.702V260.513C219.691 255.614 221.617 250.912 225.056 247.44C228.495 243.968 233.166 242.011 238.041 242H689.701C694.578 242.006 699.252 243.961 702.692 247.434C706.133 250.907 708.057 255.613 708.04 260.513Z" fill="url(#paint9_linear_108_1329)"/>
<rect x="229.709" y="299" width="47.0326" height="227" fill="url(#paint10_linear_108_1329)"/>
<rect x="347.791" y="315" width="221.153" height="209" fill="url(#paint11_linear_108_1329)"/>
<rect x="398.826" y="413" width="7.00485" height="9" fill="url(#paint12_linear_108_1329)"/>
<rect x="398.826" y="371" width="7.00485" height="9" fill="url(#paint13_linear_108_1329)"/>
<rect x="303.76" y="413" width="7.00485" height="9" fill="url(#paint14_linear_108_1329)"/>
<rect x="303.76" y="371" width="7.00485" height="9" fill="url(#paint15_linear_108_1329)"/>
<rect x="398.826" y="326" width="7.00485" height="9" fill="url(#paint16_linear_108_1329)"/>
<rect x="304.761" y="326" width="7.00485" height="9" fill="url(#paint17_linear_108_1329)"/>
<rect x="352.794" y="326" width="7.00485" height="9" fill="url(#paint18_linear_108_1329)"/>
<rect x="352.794" y="413" width="7.00485" height="9" fill="url(#paint19_linear_108_1329)"/>
<path fill-rule="evenodd" clip-rule="evenodd" d="M316.769 411H394.823V338H316.769V411ZM386.961 403.282H324.631V345.656H386.961V403.282Z" fill="#505F98"/>
<path fill-rule="evenodd" clip-rule="evenodd" d="M316.769 411H394.823V338H316.769V411ZM386.961 403.282H324.631V345.656H386.961V403.282Z" fill="url(#paint20_linear_108_1329)"/>
<rect x="600.966" y="279" width="100.069" height="100" fill="url(#paint21_linear_108_1329)"/>
<rect x="600.966" y="389" width="100.069" height="100" fill="url(#paint22_linear_108_1329)"/>
<rect opacity="0.65" x="229.709" y="298" width="47.0326" height="13" fill="url(#paint23_linear_108_1329)"/>
<path d="M26.6729 229.827L231.801 65.2927L279.914 125.118L74.7853 289.652L26.6729 229.827Z" fill="white"/>
<path d="M55.3965 234.455L80.464 214.235L113.046 254.522L87.9789 274.742L55.3965 234.455Z" fill="#505F98"/>
<path d="M55.3965 234.455L80.464 214.235L113.046 254.522L87.9789 274.742L55.3965 234.455Z" fill="url(#paint24_linear_108_1329)"/>
<path d="M79.0144 214.689L104.047 194.56L136.481 234.79L111.449 254.919L79.0144 214.689Z" fill="#505F98"/>
<path d="M79.0144 214.689L104.047 194.56L136.481 234.79L111.449 254.919L79.0144 214.689Z" fill="url(#paint25_linear_108_1329)"/>
<path d="M103.958 194.761L128.99 174.633L161.425 214.863L136.393 234.991L103.958 194.761Z" fill="#505F98"/>
<path d="M103.958 194.761L128.99 174.633L161.425 214.863L136.393 234.991L103.958 194.761Z" fill="url(#paint26_linear_108_1329)"/>
<path d="M128.886 174.847L153.918 154.718L186.353 194.948L161.321 215.077L128.886 174.847Z" fill="#505F98"/>
<path d="M128.886 174.847L153.918 154.718L186.353 194.948L161.321 215.077L128.886 174.847Z" fill="url(#paint27_linear_108_1329)"/>
<path d="M155.006 154.389L180.073 134.169L212.656 174.456L187.588 194.676L155.006 154.389Z" fill="#505F98"/>
<path d="M180.086 133.99L205.154 113.77L237.736 154.057L212.668 174.277L180.086 133.99Z" fill="#505F98"/>
<path d="M203.693 115.051L228.726 94.9226L261.161 135.153L236.128 155.281L203.693 115.051Z" fill="#505F98"/>
<path d="M233.712 158.218L212.613 175L180.675 134.782L201.774 118L233.712 158.218Z" fill="url(#paint28_linear_108_1329)"/>
<path d="M200.736 117.648L225.768 97.519L258.203 137.749L233.171 157.878L200.736 117.648Z" fill="url(#paint29_linear_108_1329)"/>
<path d="M149.653 239.15V362H128.639V239.15C128.639 234.61 131.457 230.57 135.657 229.089V216.825C135.657 214.712 137.333 213 139.4 213C141.468 213 143.144 214.712 143.144 216.825V229.297C147.063 230.935 149.632 234.823 149.653 239.15Z" fill="#505F98"/>
<path d="M149.653 239.15V362H128.639V239.15C128.639 234.61 131.457 230.57 135.657 229.089V216.825C135.657 214.712 137.333 213 139.4 213C141.468 213 143.144 214.712 143.144 216.825V229.297C147.063 230.935 149.632 234.823 149.653 239.15Z" fill="url(#paint30_linear_108_1329)"/>
<rect x="115.63" y="317" width="50.0346" height="9" rx="2.245" fill="#505F98"/>
<path d="M140.336 399C131.763 399 124.636 386.185 124.636 377.634V321H155.658V377.634C155.658 386.185 148.887 399 140.336 399Z" fill="#505F98"/>
<rect x="115.63" y="317" width="50.0346" height="9" rx="2.245" fill="url(#paint31_linear_108_1329)"/>
<path d="M140.336 399C131.763 399 124.636 386.366 124.636 377.937V326H155.658V377.937C155.658 386.366 148.887 399 140.336 399Z" fill="url(#paint32_linear_108_1329)"/>
<path d="M340.428 459C339.754 455.436 339.329 450.39 340.623 450.043C343.351 449.275 340.428 459 340.428 459Z" fill="#28353D"/>
<path d="M483.687 654.507C483.201 667.102 473.439 713.388 473.122 726.004C473.122 730.202 474.242 736.647 472.889 740.698C470.1 749.284 460.211 748.108 458.922 743.049L458.436 740.53C453.85 716.012 461.225 688.198 458.436 656.186C456.766 636.643 448.99 598.963 443.898 598.711C441.214 598.711 379.957 727.851 374.632 735.807C372.011 739.817 364.637 739.187 361.066 742.42C357.495 745.652 390.818 644.515 404.785 591.07C408.043 580.039 410.167 568.709 411.124 557.252C411.505 550.64 409.37 548.415 415.477 546.463C419.703 545.119 425.557 545.497 430.078 545.182C435.002 544.804 480.792 544.72 480.792 547.953C480.348 565.502 484.87 625.412 483.687 654.507Z" fill="#606161"/>
<path d="M483.687 654.507C483.201 667.102 473.439 713.388 473.122 726.004C473.122 730.202 474.242 736.647 472.889 740.698C470.1 749.284 460.211 748.108 458.922 743.049L458.436 740.53C453.85 716.012 461.225 688.198 458.436 656.186C456.766 636.643 448.99 598.963 443.898 598.711C441.214 598.711 379.957 727.851 374.632 735.807C372.011 739.817 364.637 739.187 361.066 742.42C357.495 745.652 390.818 644.515 404.785 591.07C408.043 580.039 410.167 568.709 411.124 557.252C411.505 550.64 409.37 548.415 415.477 546.463C419.703 545.119 425.557 545.497 430.078 545.182C435.002 544.804 480.792 544.72 480.792 547.953C480.348 565.502 484.87 625.412 483.687 654.507Z" fill="url(#paint33_linear_108_1329)"/>
<path d="M429.614 386.148C429.229 382.163 427.346 380 425.506 380C423.667 380 422.533 382.12 422.918 386.148C423.005 389.122 425.249 391.597 428.223 392C430.085 392 430.02 390.134 429.614 386.148Z" fill="#FFCD9C"/>
<path d="M462.008 386.159C462.258 382.166 464.095 380 465.994 380C467.893 380 469.124 382.124 468.832 386.159C468.805 389.173 466.56 391.687 463.615 392C461.736 392 461.715 390.152 462.008 386.159Z" fill="#FFCD9C"/>
<path d="M465.732 403.672C465.473 405.777 456.558 415 446.413 415C436.267 415 427.892 406.577 426.122 403.208C424.352 399.839 431.475 356.505 435.598 352.884C439.721 349.262 456.429 351.641 457.832 353.558C461.199 358.085 466.833 395.27 465.732 403.672Z" fill="#F4AD7D"/>
<path d="M461.538 370.977C460.159 371.639 454.743 357.842 453.607 355.525C452.472 353.208 452.654 350.829 454.033 350.167C455.413 349.505 457.441 350.871 458.577 353.167C459.713 355.463 462.897 370.336 461.538 370.977Z" fill="#FFCD9C"/>
<path d="M431.168 369.987C429.737 369.501 433.525 355.179 434.351 352.703C435.177 350.228 437.031 348.599 438.381 349.086C439.731 349.573 440.295 351.984 439.469 354.481C438.643 356.977 432.518 370.474 431.168 369.987Z" fill="#FFCD9C"/>
<path d="M436.845 402H458.608L461.87 422.622C450.014 429.005 443.101 428.301 433.85 421.214L436.845 402Z" fill="#F4AD7D"/>
<path d="M445.859 406.13C445.859 405.75 446.764 405.43 447.86 405.43C448.956 405.43 449.861 405.75 449.861 406.13C449.861 406.51 448.98 406.57 447.86 406.57C446.74 406.57 445.859 406.53 445.859 406.13Z" fill="#F4AD7D"/>
<path d="M466.892 396.808C467.716 391.894 469.06 356.708 465.764 352.051C462.469 347.394 442.741 344.381 439.749 345.108C433.05 346.731 434.221 351.517 434.221 351.517C432.23 351.547 430.28 352.084 428.563 353.076C426.265 354.615 421.43 376.79 425.289 393.56C427.023 401.102 433.852 407.66 445.646 407.981C460.171 408.365 465.895 402.896 466.892 396.808Z" fill="#606161"/>
<path d="M439.831 346.762C441.39 345.448 443.41 344.828 445.43 345.041C451.563 345.008 457.647 346.14 463.365 348.376C466.535 349.488 469.414 351.311 471.785 353.708C474.172 356.173 475.271 359.627 474.753 363.034C473.7 368.047 468.438 371.148 466.712 375.97C465.322 379.837 466.312 383.575 466.354 387.463C466.382 390.606 466.156 393.746 465.68 396.852C464.712 402.906 459.176 408.344 444.967 407.983C433.516 407.664 426.885 401.143 425.201 393.644C422.921 381.198 423.519 368.389 426.948 356.215C433.12 357.648 439.434 358.361 445.767 358.339C452.482 358.395 459.178 357.611 465.701 356.002C466.817 362.503 466.796 375.524 466.438 385.253" fill="#606161"/>
<path d="M404.702 418.954C401.268 419.241 397.96 420.384 395.077 422.28C390.139 426.171 389.764 433.43 389.848 439.748C389.678 448.501 390.285 457.252 391.66 465.897C393.139 473.826 395.827 481.441 398.035 489.202C401.516 501.831 403.344 514.862 403.473 527.966C403.473 535.162 403.348 543.07 407.827 548.697C412.723 554.806 421.39 555.998 429.182 556.438C440.245 557.086 451.349 557.17 462.412 556.709C469.829 556.375 477.725 555.643 483.6 551.082C488.288 547.442 499.267 424.288 490.746 421.171C482.225 418.054 473.058 417.259 464.016 416.506C443.745 414.791 424.661 413.431 404.702 418.954Z" fill="#505F98"/>
<path d="M468.521 674.291C467.435 688.255 464.843 739 464.843 739L458.238 738.77C453.702 714.39 460.997 686.732 458.238 654.899C456.586 635.465 448.895 597.996 443.857 597.746C445.362 585.221 453.827 587.1 453.827 587.1C459.984 596.294 465.294 606.026 469.692 616.178C474.729 629.37 469.629 660.263 468.521 674.291Z" fill="url(#paint34_linear_108_1329)"/>
<path d="M344.164 740.024C343.133 740.786 342.35 741.83 341.913 743.025C341.678 744.009 341.773 745.04 342.184 745.965C343.35 748.326 345.56 750.019 348.168 750.55C350.744 751.04 353.383 751.131 355.987 750.818L364.328 750.262C366.45 750.212 368.555 749.873 370.583 749.255C372.614 748.627 374.289 747.198 375.212 745.308C375.704 743.916 375.895 742.438 375.775 740.969C375.775 734.164 373.357 728.634 365.808 730.299C357.902 731.765 350.474 735.102 344.164 740.024Z" fill="#505F98"/>
<path d="M482.703 743.063C483.65 743.759 484.369 744.709 484.77 745.797C484.984 746.682 484.9 747.611 484.53 748.446C483.468 750.584 481.438 752.114 479.047 752.579C476.69 753.035 474.273 753.121 471.888 752.834L464.316 752.325C462.39 752.284 460.478 751.985 458.636 751.435C456.779 750.864 455.25 749.566 454.415 747.853C453.967 746.595 453.789 745.26 453.893 743.932C453.893 737.785 456.069 732.72 463.01 734.288C470.206 735.619 476.964 738.63 482.703 743.063Z" fill="#505F98"/>
<path d="M491.891 421C491.891 421 524.606 440.163 534.432 464.389C544.257 488.614 502.252 547 502.252 547L493.263 537.814C493.263 537.814 515.188 493.759 511.799 482.74C508.409 471.721 495.13 461.452 495.13 461.452L491.891 421Z" fill="#505F98"/>
<path d="M398.826 458.859C398.826 458.859 353.338 479.24 334.853 469.238C316.368 459.237 335.398 409 335.398 409L347.777 413.202C347.777 413.202 337.433 438.815 349.267 442.618C361.101 446.421 396.56 421.438 396.56 421.438L398.826 458.859Z" fill="#505F98"/>
<path d="M484.466 545.976C483.158 546.826 482.097 547.968 481.381 549.297C480.952 550.425 480.797 551.629 480.928 552.819C480.849 555.709 482.163 558.479 484.51 560.367C486.158 561.25 488.005 561.76 489.903 561.857C491.066 562.048 492.256 562.048 493.419 561.857C494.606 561.646 495.597 560.888 496.051 559.844C496.206 559.183 496.271 558.507 496.245 557.831C496.396 554.51 498.899 551.793 500.97 549.076C501.47 548.551 501.793 547.9 501.897 547.204C501.885 546.434 501.597 545.69 501.078 545.091C499.675 543.199 496.202 539.717 493.419 540.018C490.636 540.32 486.624 544.326 484.466 545.976Z" fill="#F4AD7D"/>
<path d="M355.585 401.435C356.178 400.611 356.582 399.679 356.772 398.698C356.923 397.683 356.386 396.687 355.431 396.211C353.915 395.647 352.114 397.13 350.62 396.504C350.114 396.235 349.69 395.846 349.389 395.375C347.625 392.945 346.613 390.093 346.467 387.143C346.553 385.571 346.405 383.995 346.028 382.463C345.583 380.886 344 379.849 342.293 380.018C340.886 380.331 340.095 381.689 339.217 382.776C338.338 383.863 336.58 385.158 335.437 386.516C333.487 389.307 332.37 392.55 332.208 395.898C331.592 400.077 331.197 404.861 334.273 407.87C336.646 410.189 343.874 412.927 347.192 411.694C350.861 410.315 353.74 404.444 355.585 401.435Z" fill="#F4AD7D"/>
</g>
<defs>
<filter id="filter0_d_108_1329" x="0.368835" y="0" width="982.859" height="788" filterUnits="userSpaceOnUse" color-interpolation-filters="sRGB">
<feFlood flood-opacity="0" result="BackgroundImageFix"/>
<feColorMatrix in="SourceAlpha" type="matrix" values="0 0 0 0 0 0 0 0 0 0 0 0 0 0 0 0 0 0 127 0" result="hardAlpha"/>
<feOffset dy="4"/>
<feGaussianBlur stdDeviation="2"/>
<feComposite in2="hardAlpha" operator="out"/>
<feColorMatrix type="matrix" values="0 0 0 0 0 0 0 0 0 0 0 0 0 0 0 0 0 0 0.25 0"/>
<feBlend mode="normal" in2="BackgroundImageFix" result="effect1_dropShadow_108_1329"/>
<feBlend mode="normal" in="SourceGraphic" in2="effect1_dropShadow_108_1329" result="shape"/>
</filter>
<linearGradient id="paint0_linear_108_1329" x1="155.402" y1="315.166" x2="220.156" y2="186.6" gradientUnits="userSpaceOnUse">
<stop stop-color="#010101" stop-opacity="0.01"/>
<stop offset="0.95" stop-color="#010101"/>
</linearGradient>
<linearGradient id="paint1_linear_108_1329" x1="210.563" y1="311.365" x2="303.417" y2="129.775" gradientUnits="userSpaceOnUse">
<stop stop-color="#010101" stop-opacity="0.01"/>
<stop offset="0.95" stop-color="#010101"/>
</linearGradient>
<linearGradient id="paint2_linear_108_1329" x1="330.545" y1="320.092" x2="467.899" y2="9.94817" gradientUnits="userSpaceOnUse">
<stop stop-color="#010101" stop-opacity="0.01"/>
<stop offset="0.95" stop-color="#010101"/>
</linearGradient>
<linearGradient id="paint3_linear_108_1329" x1="458.379" y1="336.583" x2="663.309" y2="-110.821" gradientUnits="userSpaceOnUse">
<stop stop-color="#010101" stop-opacity="0.01"/>
<stop offset="0.36" stop-color="#010101" stop-opacity="0.36"/>
<stop offset="0.95" stop-color="#010101"/>
</linearGradient>
<linearGradient id="paint4_linear_108_1329" x1="309.726" y1="231.564" x2="426.886" y2="-10.0312" gradientUnits="userSpaceOnUse">
<stop stop-color="white" stop-opacity="0.01"/>
<stop offset="0.07" stop-color="white" stop-opacity="0.22"/>
<stop offset="0.16" stop-color="white" stop-opacity="0.45"/>
<stop offset="0.25" stop-color="white" stop-opacity="0.65"/>
<stop offset="0.33" stop-color="white" stop-opacity="0.8"/>
<stop offset="0.4" stop-color="white" stop-opacity="0.91"/>
<stop offset="0.46" stop-color="white" stop-opacity="0.98"/>
<stop offset="0.51" stop-color="white"/>
</linearGradient>
<linearGradient id="paint5_linear_108_1329" x1="231.65" y1="178.444" x2="295.846" y2="42.5549" gradientUnits="userSpaceOnUse">
<stop stop-color="white" stop-opacity="0.01"/>
<stop offset="0.07" stop-color="white" stop-opacity="0.22"/>
<stop offset="0.16" stop-color="white" stop-opacity="0.45"/>
<stop offset="0.25" stop-color="white" stop-opacity="0.65"/>
<stop offset="0.33" stop-color="white" stop-opacity="0.8"/>
<stop offset="0.4" stop-color="white" stop-opacity="0.91"/>
<stop offset="0.46" stop-color="white" stop-opacity="0.98"/>
<stop offset="0.51" stop-color="white"/>
</linearGradient>
<linearGradient id="paint6_linear_108_1329" x1="536.972" y1="641.322" x2="547.393" y2="514.584" gradientUnits="userSpaceOnUse">
<stop stop-color="#010101" stop-opacity="0.01"/>
<stop offset="0.95" stop-color="#010101"/>
</linearGradient>
<linearGradient id="paint7_linear_108_1329" x1="135.259" y1="178.517" x2="132.544" y2="628.071" gradientUnits="userSpaceOnUse">
<stop stop-color="white" stop-opacity="0.01"/>
<stop offset="0.07" stop-color="white" stop-opacity="0.22"/>
<stop offset="0.16" stop-color="white" stop-opacity="0.45"/>
<stop offset="0.25" stop-color="white" stop-opacity="0.65"/>
<stop offset="0.33" stop-color="white" stop-opacity="0.8"/>
<stop offset="0.4" stop-color="white" stop-opacity="0.91"/>
<stop offset="0.46" stop-color="white" stop-opacity="0.98"/>
<stop offset="0.51" stop-color="white"/>
</linearGradient>
<linearGradient id="paint8_linear_108_1329" x1="-118.395" y1="616.073" x2="-118.295" y2="758.306" gradientUnits="userSpaceOnUse">
<stop stop-color="#010101" stop-opacity="0.01"/>
<stop offset="0.95" stop-color="#010101"/>
</linearGradient>
<linearGradient id="paint9_linear_108_1329" x1="1034.02" y1="361.966" x2="1068.2" y2="-45.145" gradientUnits="userSpaceOnUse">
<stop stop-color="white" stop-opacity="0.01"/>
<stop offset="0.07" stop-color="white" stop-opacity="0.22"/>
<stop offset="0.16" stop-color="white" stop-opacity="0.45"/>
<stop offset="0.25" stop-color="white" stop-opacity="0.65"/>
<stop offset="0.33" stop-color="white" stop-opacity="0.8"/>
<stop offset="0.4" stop-color="white" stop-opacity="0.91"/>
<stop offset="0.46" stop-color="white" stop-opacity="0.98"/>
<stop offset="0.51" stop-color="white"/>
</linearGradient>
<linearGradient id="paint10_linear_108_1329" x1="207.138" y1="251.87" x2="345.145" y2="620.142" gradientUnits="userSpaceOnUse">
<stop stop-color="white" stop-opacity="0.01"/>
<stop offset="0.07" stop-color="white" stop-opacity="0.22"/>
<stop offset="0.16" stop-color="white" stop-opacity="0.45"/>
<stop offset="0.25" stop-color="white" stop-opacity="0.65"/>
<stop offset="0.33" stop-color="white" stop-opacity="0.8"/>
<stop offset="0.4" stop-color="white" stop-opacity="0.91"/>
<stop offset="0.46" stop-color="white" stop-opacity="0.98"/>
<stop offset="0.51" stop-color="white"/>
</linearGradient>
<linearGradient id="paint11_linear_108_1329" x1="310.668" y1="274.99" x2="307.343" y2="557.698" gradientUnits="userSpaceOnUse">
<stop stop-color="white" stop-opacity="0.01"/>
<stop offset="0.07" stop-color="white" stop-opacity="0.22"/>
<stop offset="0.16" stop-color="white" stop-opacity="0.45"/>
<stop offset="0.25" stop-color="white" stop-opacity="0.65"/>
<stop offset="0.33" stop-color="white" stop-opacity="0.8"/>
<stop offset="0.4" stop-color="white" stop-opacity="0.91"/>
<stop offset="0.46" stop-color="white" stop-opacity="0.98"/>
<stop offset="0.51" stop-color="white"/>
</linearGradient>
<linearGradient id="paint12_linear_108_1329" x1="626.503" y1="466.704" x2="645.69" y2="-111.215" gradientUnits="userSpaceOnUse">
<stop stop-color="#010101" stop-opacity="0.01"/>
<stop offset="0.95" stop-color="#010101"/>
</linearGradient>
<linearGradient id="paint13_linear_108_1329" x1="625.651" y1="467.045" x2="644.838" y2="-110.875" gradientUnits="userSpaceOnUse">
<stop stop-color="#010101" stop-opacity="0.01"/>
<stop offset="0.95" stop-color="#010101"/>
</linearGradient>
<linearGradient id="paint14_linear_108_1329" x1="531.472" y1="464.354" x2="550.688" y2="-113.565" gradientUnits="userSpaceOnUse">
<stop stop-color="#010101" stop-opacity="0.01"/>
<stop offset="0.95" stop-color="#010101"/>
</linearGradient>
<linearGradient id="paint15_linear_108_1329" x1="530.62" y1="464.694" x2="549.836" y2="-113.224" gradientUnits="userSpaceOnUse">
<stop stop-color="#010101" stop-opacity="0.01"/>
<stop offset="0.95" stop-color="#010101"/>
</linearGradient>
<linearGradient id="paint16_linear_108_1329" x1="624.712" y1="468.545" x2="643.928" y2="-109.373" gradientUnits="userSpaceOnUse">
<stop stop-color="#010101" stop-opacity="0.01"/>
<stop offset="0.95" stop-color="#010101"/>
</linearGradient>
<linearGradient id="paint17_linear_108_1329" x1="530.682" y1="466.236" x2="549.87" y2="-111.683" gradientUnits="userSpaceOnUse">
<stop stop-color="#010101" stop-opacity="0.01"/>
<stop offset="0.95" stop-color="#010101"/>
</linearGradient>
<linearGradient id="paint18_linear_108_1329" x1="578.672" y1="467.396" x2="597.888" y2="-110.501" gradientUnits="userSpaceOnUse">
<stop stop-color="#010101" stop-opacity="0.01"/>
<stop offset="0.95" stop-color="#010101"/>
</linearGradient>
<linearGradient id="paint19_linear_108_1329" x1="580.488" y1="464.843" x2="599.704" y2="-113.075" gradientUnits="userSpaceOnUse">
<stop stop-color="#010101" stop-opacity="0.01"/>
<stop offset="0.95" stop-color="#010101"/>
</linearGradient>
<linearGradient id="paint20_linear_108_1329" x1="235.41" y1="479.399" x2="467.643" y2="696.094" gradientUnits="userSpaceOnUse">
<stop stop-color="white" stop-opacity="0.01"/>
<stop offset="0.07" stop-color="white" stop-opacity="0.22"/>
<stop offset="0.16" stop-color="white" stop-opacity="0.45"/>
<stop offset="0.25" stop-color="white" stop-opacity="0.65"/>
<stop offset="0.33" stop-color="white" stop-opacity="0.8"/>
<stop offset="0.4" stop-color="white" stop-opacity="0.91"/>
<stop offset="0.46" stop-color="white" stop-opacity="0.98"/>
<stop offset="0.51" stop-color="white"/>
</linearGradient>
<linearGradient id="paint21_linear_108_1329" x1="584.277" y1="259.864" x2="582.492" y2="395.026" gradientUnits="userSpaceOnUse">
<stop stop-color="white" stop-opacity="0.01"/>
<stop offset="0.07" stop-color="white" stop-opacity="0.22"/>
<stop offset="0.16" stop-color="white" stop-opacity="0.45"/>
<stop offset="0.25" stop-color="white" stop-opacity="0.65"/>
<stop offset="0.33" stop-color="white" stop-opacity="0.8"/>
<stop offset="0.4" stop-color="white" stop-opacity="0.91"/>
<stop offset="0.46" stop-color="white" stop-opacity="0.98"/>
<stop offset="0.51" stop-color="white"/>
</linearGradient>
<linearGradient id="paint22_linear_108_1329" x1="584.277" y1="369.864" x2="582.492" y2="505.026" gradientUnits="userSpaceOnUse">
<stop stop-color="white" stop-opacity="0.01"/>
<stop offset="0.07" stop-color="white" stop-opacity="0.22"/>
<stop offset="0.16" stop-color="white" stop-opacity="0.45"/>
<stop offset="0.25" stop-color="white" stop-opacity="0.65"/>
<stop offset="0.33" stop-color="white" stop-opacity="0.8"/>
<stop offset="0.4" stop-color="white" stop-opacity="0.91"/>
<stop offset="0.46" stop-color="white" stop-opacity="0.98"/>
<stop offset="0.51" stop-color="white"/>
</linearGradient>
<linearGradient id="paint23_linear_108_1329" x1="220.437" y1="295.281" x2="220.42" y2="313.481" gradientUnits="userSpaceOnUse">
<stop stop-color="white" stop-opacity="0.01"/>
<stop offset="0.07" stop-color="white" stop-opacity="0.22"/>
<stop offset="0.16" stop-color="white" stop-opacity="0.45"/>
<stop offset="0.25" stop-color="white" stop-opacity="0.65"/>
<stop offset="0.33" stop-color="white" stop-opacity="0.8"/>
<stop offset="0.4" stop-color="white" stop-opacity="0.91"/>
<stop offset="0.46" stop-color="white" stop-opacity="0.98"/>
<stop offset="0.51" stop-color="white"/>
</linearGradient>
<linearGradient id="paint24_linear_108_1329" x1="139.737" y1="348.052" x2="253.168" y2="258.635" gradientUnits="userSpaceOnUse">
<stop stop-color="#010101" stop-opacity="0.01"/>
<stop offset="0.95" stop-color="#010101"/>
</linearGradient>
<linearGradient id="paint25_linear_108_1329" x1="189.575" y1="367.988" x2="350.852" y2="242.867" gradientUnits="userSpaceOnUse">
<stop stop-color="#010101" stop-opacity="0.01"/>
<stop offset="0.95" stop-color="#010101"/>
</linearGradient>
<linearGradient id="paint26_linear_108_1329" x1="294.519" y1="426.751" x2="550.684" y2="204.028" gradientUnits="userSpaceOnUse">
<stop stop-color="#010101" stop-opacity="0.01"/>
<stop offset="0.95" stop-color="#010101"/>
</linearGradient>
<linearGradient id="paint27_linear_108_1329" x1="403.279" y1="495.865" x2="778.962" y2="177.45" gradientUnits="userSpaceOnUse">
<stop stop-color="#010101" stop-opacity="0.01"/>
<stop offset="0.36" stop-color="#010101" stop-opacity="0.36"/>
<stop offset="0.95" stop-color="#010101"/>
</linearGradient>
<linearGradient id="paint28_linear_108_1329" x1="251.537" y1="258.751" x2="434.477" y2="127.322" gradientUnits="userSpaceOnUse">
<stop stop-color="white" stop-opacity="0.01"/>
<stop offset="0.07" stop-color="white" stop-opacity="0.22"/>
<stop offset="0.16" stop-color="white" stop-opacity="0.45"/>
<stop offset="0.25" stop-color="white" stop-opacity="0.65"/>
<stop offset="0.33" stop-color="white" stop-opacity="0.8"/>
<stop offset="0.4" stop-color="white" stop-opacity="0.91"/>
<stop offset="0.46" stop-color="white" stop-opacity="0.98"/>
<stop offset="0.51" stop-color="white"/>
</linearGradient>
<linearGradient id="paint29_linear_108_1329" x1="265.151" y1="256.517" x2="381.009" y2="160.658" gradientUnits="userSpaceOnUse">
<stop stop-color="white" stop-opacity="0.01"/>
<stop offset="0.07" stop-color="white" stop-opacity="0.22"/>
<stop offset="0.16" stop-color="white" stop-opacity="0.45"/>
<stop offset="0.25" stop-color="white" stop-opacity="0.65"/>
<stop offset="0.33" stop-color="white" stop-opacity="0.8"/>
<stop offset="0.4" stop-color="white" stop-opacity="0.91"/>
<stop offset="0.46" stop-color="white" stop-opacity="0.98"/>
<stop offset="0.51" stop-color="white"/>
</linearGradient>
<linearGradient id="paint30_linear_108_1329" x1="130.738" y1="422.745" x2="168.923" y2="422.767" gradientUnits="userSpaceOnUse">
<stop stop-color="white" stop-opacity="0.01"/>
<stop offset="0.07" stop-color="white" stop-opacity="0.22"/>
<stop offset="0.16" stop-color="white" stop-opacity="0.45"/>
<stop offset="0.25" stop-color="white" stop-opacity="0.65"/>
<stop offset="0.33" stop-color="white" stop-opacity="0.8"/>
<stop offset="0.4" stop-color="white" stop-opacity="0.91"/>
<stop offset="0.46" stop-color="white" stop-opacity="0.98"/>
<stop offset="0.51" stop-color="white"/>
</linearGradient>
<linearGradient id="paint31_linear_108_1329" x1="57.4458" y1="325.2" x2="69.0971" y2="363.932" gradientUnits="userSpaceOnUse">
<stop stop-color="#010101" stop-opacity="0.01"/>
<stop offset="0.95" stop-color="#010101"/>
</linearGradient>
<linearGradient id="paint32_linear_108_1329" x1="82.2439" y1="473.933" x2="183.146" y2="475.976" gradientUnits="userSpaceOnUse">
<stop stop-color="#010101" stop-opacity="0.01"/>
<stop offset="0.95" stop-color="#010101"/>
</linearGradient>
<linearGradient id="paint33_linear_108_1329" x1="485.015" y1="631.512" x2="388.922" y2="466.732" gradientUnits="userSpaceOnUse">
<stop stop-color="#010101" stop-opacity="0.01"/>
<stop offset="0.95" stop-color="#010101"/>
</linearGradient>
<linearGradient id="paint34_linear_108_1329" x1="486.037" y1="169.892" x2="313.151" y2="174.761" gradientUnits="userSpaceOnUse">
<stop stop-color="#010101" stop-opacity="0.01"/>
<stop offset="0.95" stop-color="#010101"/>
</linearGradient>
</defs>
</svg>
